<?xml version="1.0" encoding="UTF-8"?>
<svg xmlns="http://www.w3.org/2000/svg" version="1.1" viewBox="0 0 578.5 142.3">
  <defs>
    <style>
      .cls-1 {
        fill: #172c70;
      }

      .cls-1, .cls-2, .cls-3 {
        fill-rule: evenodd;
      }

      .cls-2 {
        fill: #113984;
      }

      .cls-3 {
        fill: #009ee3;
      }
    </style>
  </defs>
  <!-- Generator: Adobe Illustrator 28.6.0, SVG Export Plug-In . SVG Version: 1.2.0 Build 709)  -->
  <g>
    <g id="Layer_1">
      <g>
        <path class="cls-3" d="M55.1,37.3h38.7c20.8,0,28.6,10.5,27.4,26-2,25.5-17.4,39.7-37.9,39.7h-10.3c-2.8,0-4.7,1.9-5.5,6.9l-4.4,29.3c-.3,1.9-1.3,3-2.8,3.2h-24.3c-2.3,0-3.1-1.7-2.5-5.5l14.8-93.9c.6-3.8,2.7-5.6,6.7-5.6Z"/>
        <path class="cls-2" d="M223.3,35.6c13.1,0,25.1,7.1,23.5,24.8-2,21-13.2,32.6-31,32.7h-15.5c-2.2,0-3.3,1.8-3.9,5.6l-3,19.1c-.5,2.9-1.9,4.3-4.1,4.3h-14.4c-2.3,0-3.1-1.5-2.6-4.8l11.9-76.4c.6-3.8,2-5.2,4.6-5.2h34.5ZM199.8,76.5h11.8c7.3-.3,12.2-5.4,12.7-14.5.3-5.7-3.5-9.7-9.6-9.7h-11.1c0,0-3.8,24.2-3.8,24.2h0ZM286,116.1c1.3-1.2,2.7-1.8,2.5-.3l-.5,3.5c-.2,1.8.5,2.8,2.2,2.8h12.8c2.2,0,3.2-.9,3.7-4.2l7.9-49.6c.4-2.5-.2-3.7-2.1-3.7h-14.1c-1.3,0-1.9.7-2.2,2.7l-.5,3.1c-.3,1.6-1,1.9-1.7.3-2.4-5.7-8.5-8.2-17-8-19.8.4-33.1,15.4-34.5,34.7-1.1,14.9,9.6,26.6,23.6,26.6,10.2,0,14.8-3,19.9-7.7h0ZM275.3,108.5c-8.5,0-14.4-6.8-13.2-15.1,1.2-8.3,9.2-15.1,17.7-15.1s14.4,6.8,13.2,15.1c-1.2,8.3-9.2,15.1-17.7,15.1h0ZM339.8,64.4h-13c-2.7,0-3.8,2-2.9,4.5l16.1,47.3-15.9,22.5c-1.3,1.9-.3,3.6,1.6,3.6h14.6c2.2,0,3.2-.6,4.3-2.1l49.6-71.2c1.5-2.2.8-4.5-1.7-4.5h-13.8c-2.4,0-3.3.9-4.7,2.9l-20.7,30-9.2-30.1c-.6-1.9-1.9-2.8-4.4-2.8Z"/>
        <path class="cls-3" d="M445.9,35.6c13.1,0,25.1,7.1,23.5,24.8-2,21-13.2,32.6-31,32.7h-15.5c-2.2,0-3.3,1.8-3.9,5.6l-3,19.1c-.5,2.9-1.9,4.3-4.1,4.3h-14.4c-2.3,0-3.1-1.5-2.6-4.8l11.9-76.4c.6-3.8,2-5.2,4.6-5.2h34.5ZM422.4,76.5h11.8c7.3-.3,12.2-5.4,12.7-14.5.3-5.7-3.5-9.7-9.6-9.7h-11.1c0,0-3.8,24.2-3.8,24.2h0ZM508.6,116.1c1.3-1.2,2.7-1.8,2.5-.3l-.5,3.5c-.2,1.8.5,2.8,2.2,2.8h12.8c2.2,0,3.2-.9,3.7-4.2l7.9-49.6c.4-2.5-.2-3.7-2.1-3.7h-14.1c-1.3,0-1.9.7-2.2,2.7l-.5,3.1c-.3,1.6-1,1.9-1.7.3-2.4-5.7-8.5-8.2-17-8-19.8.4-33.1,15.4-34.5,34.7-1.1,14.9,9.6,26.6,23.6,26.6,10.2,0,14.8-3,19.9-7.7h0ZM497.9,108.5c-8.5,0-14.4-6.8-13.2-15.1,1.2-8.3,9.2-15.1,17.7-15.1s14.4,6.8,13.2,15.1c-1.2,8.3-9.2,15.1-17.7,15.1h0ZM557,122.2h-14.8c-1.2,0-2-.9-1.8-2l13-82.4c.2-1.1,1.3-2,2.5-2h14.8c1.2,0,2,.9,1.8,2l-13,82.4c-.2,1.1-1.3,2-2.5,2Z"/>
        <path class="cls-2" d="M30.9,5h38.8c10.9,0,23.9.4,32.5,8,5.8,5.1,8.8,13.2,8.1,22-2.4,29.6-20.1,46.2-43.8,46.2h-19.1c-3.3,0-5.4,2.2-6.3,8l-5.3,34c-.3,2.2-1.3,3.5-3,3.7H8.7c-2.7,0-3.6-2-2.9-6.4L23,11.4c.7-4.4,3.1-6.4,7.8-6.4Z"/>
        <path class="cls-1" d="M41.6,85.7l6.8-42.9c.6-3.8,2.7-5.6,6.7-5.6h38.7c6.4,0,11.6,1,15.7,2.8-3.9,26.4-20.9,41-43.3,41h-19.1c-2.5,0-4.4,1.3-5.5,4.6Z"/>
      </g>
    </g>
  </g>
</svg>