<?xml version="1.0" encoding="UTF-8"?>
<svg xmlns="http://www.w3.org/2000/svg" version="1.1" viewBox="0 0 1424 579">
  <defs>
    <style>
      .cls-1 {
        fill: #6c1cd3;
      }
    </style>
  </defs>
  <!-- Generator: Adobe Illustrator 28.6.0, SVG Export Plug-In . SVG Version: 1.2.0 Build 709)  -->
  <g>
    <g id="Layer_1">
      <g>
        <path class="cls-1" d="M131.9,80.2l-122.6-1.1v81.3h203.1L1.3,430.9v68.8h130.5v79.3h78.3v-79.3h133.1c1.1-3.2,1.5-11.7-5.6-19.5-11.7-13.1-21.1-26.7-29.7-43.9-3.9-7.6-6.9-16.8-8-17.5-26.2-1.2-177.1-.9-177-1.8l211.3-272.2v-64.5h-124.2V0h-78.3v80.2h0ZM697.4,42.3c-1.9.7-2.4,42-2.4,198s-.2,207.4,9.1,225.4c8.4,16.2,28.9,30.8,51.8,36.7,12.7,3.4,50,3.7,64.3.7,18.5-3.9,22-9.5,14.7-23.9-4.7-9-10.8-28.5-12.3-39.3-2.1-12.9-4.7-14.9-20.3-14.5-7.5.2-14.5-.4-15.9-1.1-7.6-4.8-7.6-6.2-7.6-195.1s-.6-182.4-1.9-184.8c-1.9-3.4-4.3-3.5-39.7-3.4-20.7,0-38.8.6-39.9,1.1h0ZM868.4,42.9c-2.4,1.5-2.8,25.4-2.8,196.2s.2,195.2,3.5,208.1c6.3,25.4,20.7,40.8,47.9,52.2,10.4,4.3,15.1,5,36.2,5.6,28.2.7,42.5-1.3,56.9-8.6,14.2-6.9,14.5-11.7,2.4-29.5-4.8-7.1-12.3-19.2-16.4-26.9l-7.5-14-13.6-.2c-17-.4-18.6-1.1-21.8-9.1-2.4-5.4-2.8-33.2-2.8-187.4s-.6-182.4-1.9-184.8c-1.9-3.4-4.3-3.5-39.7-3.5s-39,.9-40.5,1.9h0ZM1364.5,83c-15.1,6.9-22.9,18.8-23.1,35.4-.2,14.2,5.6,25,17.3,32.6,14.5,9.9,37.9,7.1,50-6,15.5-16.6,12.3-45.3-6.7-58.2-9.9-6.7-27.2-8.4-37.5-3.9h0ZM1394.3,89.9c21.1,10.6,24.2,37.9,6.3,53.7-7.6,6.7-13.1,8.2-24.8,7.1-32.4-3.2-38.8-48.7-8.6-62.3,8.2-3.7,17.7-3.2,27,1.5h0Z"/>
        <path class="cls-1" d="M1365.8,98.3c-1.3,2.2-1.5,36.9-.2,40.5.6,1.7,2.2,3,3.7,3s2.6-2.6,2.6-9.3.4-9.3,4.3-9.3,5.6,2.6,9.7,9.3c3.4,5.6,6.7,9.3,8.8,9.3,4.5,0,4.3-.7-2.6-10.8-4.1-6-5.2-8.8-3.5-9.3,4.8-1.7,9.5-7.8,9.5-12.5,0-8.4-6-12.1-19.4-12.1s-12.5.6-12.9,1.3h0ZM1388.3,104.2c1.5.7,2.2,3.5,1.9,6-.6,3.9-1.7,4.5-9.3,5l-9,.6v-6.5c0-6.5.2-6.7,7.1-6.7s8,.7,9.3,1.7ZM462.9,159.4c-.9.4-8.2,2.1-15.9,3.7-47.9,11-90.3,47.7-108.2,94.4-9.9,25.7-13.4,45.7-13.6,75.3-.2,41.6,8.2,72.2,27.4,101.3,21.6,32.6,53.3,54.8,94.4,66,14,3.7,20.1,4.3,52.2,4.3s38.2-.6,51.5-4.1c32.8-9.1,60.8-24.2,83.4-45.7,14.4-13.4,14.2-17.2-.4-28.3-6-4.7-16.8-14.7-23.9-22.6-9-9.5-14.4-14-17.2-14s-8.6,3.7-14.4,9.3c-20,18.1-45.1,26.7-78.1,26.5-30.2-.2-52.2-8-66.2-24.1-7.1-8-16-26.3-17.9-36.5l-1.1-6.9h116.2c64,0,117.5-.7,118.8-1.7,6.2-3.9,7.6-31,3.2-60.4-10.6-70.5-52.8-117.9-119-133.7-11.7-2.8-21.4-3.7-42.3-3.5-14.9,0-27.8.4-28.9.7h0ZM512.6,231.4c13.6,2.8,30.4,12.1,38.2,21.1,7.3,8.2,14.7,22.9,16.6,32.4l1.3,6h-152l1.3-6c5.6-25.2,27.2-46.2,54.1-53s28-3.2,40.5-.6h0ZM1140.7,161.1c-66.2,14.7-111,61.3-124.9,130.2-8.4,40.7-3.7,88,12.1,122,21.6,47,61,77.4,114.7,88.4,17,3.5,23.7,3.9,50.3,3.2,22.6-.7,34.7-2.1,45.1-4.8,31.9-8.4,59.9-23.7,81.3-44.2,16.4-15.9,16.4-16.6-1.3-31.3-8.2-6.7-19.2-17.3-24.4-23.5-12.1-14-15.3-14.2-28.9-1.9-20.3,18.5-44.6,26.7-78.3,26.5-47.4-.2-75-20.5-83.9-61.5l-1.3-4.8h236.3c8-5.8,5-67-4.7-95.3-1.9-5.6-6.9-16.8-11-24.6-21.8-41.8-56.7-67.7-105.2-77.9-15.5-3.4-61.2-3.4-75.9-.2h0ZM1198.9,231.4c12.7,2.8,25.7,9.3,35.1,17.7,7.8,7.3,20.5,30.2,20.5,37.3v4.5h-151.4l1.3-5.2c9.7-39.9,50.7-63.6,94.5-54.3h0Z"/>
      </g>
    </g>
  </g>
</svg>