<?xml version="1.0" encoding="UTF-8"?>
<svg xmlns="http://www.w3.org/2000/svg" version="1.1" viewBox="0 0 120 26.4">
  <defs>
    <style>
      .cls-1 {
        fill: #3d95ce;
      }
    </style>
  </defs>
  <!-- Generator: Adobe Illustrator 28.6.0, SVG Export Plug-In . SVG Version: 1.2.0 Build 709)  -->
  <g>
    <g id="Layer_1">
      <path class="cls-1" d="M20.4,1.9c.8,1.3,1.2,2.7,1.2,4.4,0,5.4-4.6,12.5-8.4,17.5H4.5L1,3.1l7.5-.7,1.8,14.7c1.7-2.8,3.8-7.1,3.8-10.1s-.3-2.7-.7-3.7l6.9-1.4ZM30.1,11c1.4,0,4.9-.6,4.9-2.6s-.7-1.4-1.5-1.4c-1.4,0-3.2,1.7-3.4,4.1h0ZM30,14.9c0,2.4,1.3,3.4,3.1,3.4s3.8-.5,6.2-1.7l-.9,6.2c-1.7.8-4.4,1.4-6.9,1.4-6.5,0-8.9-4-8.9-8.9S26.4,1.9,34.3,1.9s6.7,2.4,6.7,5.8c0,5.4-7,7.1-11,7.1h0ZM62.8,6.7c0,.8-.1,2-.2,2.7l-2.3,14.3h-7.3l2.1-13.1.2-1.5c0-1-.6-1.2-1.3-1.2s-1.9.4-2.5.8l-2.3,15h-7.4l3.4-21.4h6.4v1.7c1.6-1,3.6-2.1,6.4-2.1s5,1.9,5,4.8h0ZM84.6,4.3c2.1-1.5,4.1-2.3,6.8-2.3s5.1,1.9,5.1,4.8-.1,2-.2,2.7l-2.3,14.3h-7.4l2.1-13.4v-1.1c.1-1.1-.5-1.3-1.2-1.3s-1.8.4-2.5.8l-2.4,15h-7.3l2.1-13.4v-1.1c.1-1.1-.5-1.3-1.2-1.3s-1.9.4-2.5.8l-2.3,15h-7.4l3.4-21.4h6.3l.2,1.8c1.5-1.1,3.5-2.1,6.1-2.1,2.3,0,3.8,1,4.6,2.3h0ZM111.1,10.5c0-1.7-.4-2.9-1.7-2.9-2.9,0-3.5,5.1-3.5,7.7s.6,3.2,1.9,3.2c2.7,0,3.4-5.4,3.4-8h0ZM98.4,15c0-6.8,3.6-13.1,11.8-13.1s8.5,3.7,8.5,8.7-3.5,13.6-11.9,13.6-8.3-4.1-8.3-9.2h0Z"/>
    </g>
  </g>
</svg>